<svg width="57" height="57" viewBox="0 0 57 57" fill="none" xmlns="http://www.w3.org/2000/svg">
<circle opacity="0.2" cx="28.5" cy="28.5" r="28.5" fill="#6E87FB"/>
<path d="M42.88 28.44C42.88 35.8635 36.8635 41.88 29.44 41.88C22.0165 41.88 16 35.8635 16 28.44C16 21.0165 22.0165 15 29.44 15C36.8635 15 42.88 21.0165 42.88 28.44ZM18.7132 30.4928L20.379 30.8287C20.7917 30.9127 21.219 30.7815 21.5177 30.4822L22.3262 29.6737C22.93 29.0227 23.959 29.2327 24.3422 30.0045L24.8305 30.9757C25.0352 31.4797 25.597 31.7528 26.1587 31.7528C26.9567 31.7528 27.529 31.0335 27.298 30.267L26.9882 29.2222C26.7415 28.4137 27.3505 27.6 28.1958 27.6H28.3165C28.9727 27.6 29.6762 27.2482 30.0647 26.6655L30.6265 25.8202C30.9205 25.3792 30.9047 24.7965 30.5845 24.366L29.7393 23.2372C29.1985 22.518 29.566 21.4785 30.4427 21.258L31.3352 20.9902C31.729 20.9377 32.0492 20.6595 32.2015 20.2815L33.0572 18.1337C31.9285 17.7363 30.7105 17.52 29.3927 17.52C23.4078 17.52 18.4727 22.4077 18.4727 28.44C18.4727 29.1435 18.5861 29.8313 18.7132 30.4928ZM39.646 30.771L38.8165 31.0072C38.4648 31.1017 38.092 30.96 37.8977 30.6555L37.7927 30.4928C37.4777 29.9992 36.9317 29.6528 36.3438 29.6528C35.761 29.6528 35.1677 29.9992 34.8947 30.4928L34.5745 30.9915C34.501 31.107 34.4013 31.2067 34.2805 31.2277L32.3328 32.3302C31.4297 32.8605 31.0413 34.0312 31.4402 35.0235L31.7762 35.6745C32.2277 36.6825 33.388 37.1707 34.3802 36.7822L34.5588 36.6877C35.089 36.5355 35.677 36.6195 36.1337 36.9502L36.2125 37.008C38.1655 35.4592 39.5777 33.2595 40.1185 30.7343C39.961 30.7185 39.8035 30.729 39.646 30.771ZM24.1953 34.2937L25.8752 34.7137C26.3267 34.8293 26.7835 34.5562 26.8937 34.1047C27.0092 33.6532 26.7362 33.1965 26.2847 33.0863L24.6047 32.6663C24.1532 32.5507 23.6965 32.8237 23.5862 33.2752C23.4707 33.7267 23.7438 34.1835 24.1953 34.2937ZM28.4162 32.2253C28.3007 32.6768 28.5737 33.1335 29.0252 33.2437C29.4768 33.3592 29.9335 33.0862 30.0437 32.6347L30.4637 30.9547C30.5792 30.5032 30.3062 30.0465 29.8547 29.9362C29.4032 29.8207 28.9465 30.0938 28.8362 30.5452L28.4162 32.2253ZM32.8892 21.342L32.0492 23.022C31.8393 23.4367 32.0072 23.946 32.422 24.1508C32.8367 24.3608 33.346 24.1927 33.5507 23.778L34.3907 22.098C34.6007 21.6832 34.4328 21.174 34.018 20.9692C33.6033 20.7592 33.094 20.9272 32.8892 21.342Z" fill="#6E87FB"/>
</svg>
