<svg width="70" height="70" viewBox="0 0 70 70" fill="none" xmlns="http://www.w3.org/2000/svg">
<mask id="mask0_66_1671" style="mask-type:alpha" maskUnits="userSpaceOnUse" x="0" y="0" width="70" height="70">
<circle cx="35" cy="35" r="35" fill="#E081E2"/>
</mask>
<g mask="url(#mask0_66_1671)">
<circle opacity="0.2" cx="35" cy="35" r="35" fill="#E081E2"/>
<path d="M35 20C37.7848 20 40.4555 21.1062 42.4246 23.0754C44.3938 25.0445 45.5 27.7152 45.5 30.5C45.5 33.2848 44.3938 35.9555 42.4246 37.9246C40.4555 39.8938 37.7848 41 35 41C32.2152 41 29.5445 39.8938 27.5754 37.9246C25.6062 35.9555 24.5 33.2848 24.5 30.5C24.5 27.7152 25.6062 25.0445 27.5754 23.0754C29.5445 21.1062 32.2152 20 35 20ZM35 46.25C46.6025 46.25 56 50.9487 56 56.75V68.5L35 70L14 69.5V56.75C14 50.9487 23.3975 46.25 35 46.25Z" fill="#E081E2"/>
</g>
</svg>
