<svg width="57" height="57" viewBox="0 0 57 57" fill="none" xmlns="http://www.w3.org/2000/svg">
<circle opacity="0.2" cx="28.5" cy="28.5" r="28.5" fill="#93AAF3"/>
<path d="M28.062 33.7507H28.687V30.6257H24.937C24.5919 30.6257 24.312 30.3459 24.312 30.0007V28.1257C24.312 27.7943 24.1803 27.4762 23.9459 27.2418C23.7116 27.0074 23.3935 26.8757 23.062 26.8757C22.7305 26.8757 22.4125 27.0074 22.1781 27.2418C21.9437 27.4762 21.812 27.7943 21.812 28.1257V30.0007C21.812 30.1665 21.7462 30.3255 21.629 30.4427C21.5118 30.5599 21.3527 30.6257 21.187 30.6257H17.437V33.7507H18.062C18.9552 33.7507 19.7805 34.2273 20.2272 35.0007C20.6736 35.7742 20.6736 36.7273 20.2272 37.5007C19.7804 38.2742 18.9551 38.7507 18.062 38.7507H17.437V41.8757H28.687V38.7507H28.062C27.1689 38.7507 26.3435 38.2742 25.8969 37.5007C25.4504 36.7273 25.4504 35.7742 25.8969 35.0007C26.3436 34.2273 27.1689 33.7507 28.062 33.7507Z" fill="#93AAF3"/>
<path d="M42.1873 30.625H39.0623V31.875C39.0623 32.7681 38.5857 33.5935 37.8123 34.0401C37.0388 34.4866 36.0857 34.4866 35.3123 34.0401C34.5388 33.5934 34.0623 32.7681 34.0623 31.875V30.625H30.9373V34.375C30.9373 34.5407 30.8714 34.6998 30.7542 34.817C30.637 34.9341 30.478 35 30.3123 35H29.0623C28.7308 35 28.4127 35.1317 28.1783 35.3661C27.944 35.6004 27.8123 35.9185 27.8123 36.25C27.8123 36.5815 27.944 36.8996 28.1783 37.1339C28.4127 37.3683 28.7308 37.5 29.0623 37.5H30.3123C30.478 37.5 30.637 37.5658 30.7542 37.683C30.8714 37.8002 30.9373 37.9593 30.9373 38.125V41.875H42.1873V30.625Z" fill="#93AAF3"/>
<path d="M15.25 24.6879H16.8125C16.9782 24.6879 17.1373 24.7537 17.2545 24.8709C17.3716 24.9881 17.4375 25.1471 17.4375 25.3129V29.3754H20.5625V28.1254C20.5625 27.2322 21.0391 26.4069 21.8125 25.9602C22.5859 25.5138 23.5391 25.5138 24.3125 25.9602C25.0859 26.4069 25.5625 27.2323 25.5625 28.1254V29.3754H28.6875V25.6254C28.6875 25.2802 28.9674 25.0004 29.3125 25.0004H30.5625C30.894 25.0004 31.2121 24.8687 31.4464 24.6343C31.6808 24.3999 31.8125 24.0818 31.8125 23.7504C31.8125 23.4189 31.6808 23.1008 31.4464 22.8664C31.2121 22.6321 30.894 22.5004 30.5625 22.5004H29.3125C28.9674 22.5004 28.6875 22.2205 28.6875 21.8754V18.1254H24.9375C24.5924 18.1254 24.3125 17.8455 24.3125 17.5004V16.2504C24.3125 15.9189 24.1808 15.6008 23.9464 15.3664C23.7121 15.1321 23.394 15.0004 23.0625 15.0004C22.731 15.0004 22.4129 15.1321 22.1786 15.3664C21.9442 15.6008 21.8125 15.9189 21.8125 16.2504V17.5004C21.8125 17.6661 21.7467 17.8251 21.6295 17.9423C21.5123 18.0595 21.3532 18.1254 21.1875 18.1254H17.4375V21.5629C17.4375 21.7286 17.3717 21.8876 17.2545 22.0048C17.1373 22.122 16.9782 22.1879 16.8125 22.1879H15.25C14.9185 22.1879 14.6004 22.3196 14.3661 22.5539C14.1317 22.7883 14 23.1064 14 23.4379C14 23.7693 14.1317 24.0874 14.3661 24.3218C14.6004 24.5562 14.9185 24.6879 15.25 24.6879Z" fill="#93AAF3"/>
<path d="M42.1873 18.125H38.4373C38.0921 18.125 37.8123 17.8451 37.8123 17.5V16.25C37.8123 15.8033 37.574 15.3906 37.1873 15.1674C36.8005 14.9442 36.324 14.9442 35.9373 15.1674C35.5505 15.3906 35.3123 15.8033 35.3123 16.25V17.5C35.3123 17.6657 35.2464 17.8248 35.1292 17.9419C35.012 18.0591 34.853 18.125 34.6873 18.125H30.9373V21.25H31.5623C32.2252 21.25 32.8611 21.5134 33.3301 21.9821C33.7989 22.4512 34.0623 23.0871 34.0623 23.75C34.0623 24.4129 33.7989 25.0488 33.3301 25.5178C32.8611 25.9866 32.2252 26.25 31.5623 26.25H30.9373V29.375H34.6873C34.853 29.375 35.012 29.4408 35.1292 29.558C35.2464 29.6752 35.3123 29.8342 35.3123 30V31.875C35.3123 32.2065 35.444 32.5245 35.6783 32.7589C35.9127 32.9933 36.2308 33.125 36.5623 33.125C36.8937 33.125 37.2118 32.9933 37.4462 32.7589C37.6806 32.5245 37.8123 32.2065 37.8123 31.875V30C37.8123 29.6548 38.0921 29.375 38.4373 29.375H42.1873V18.125Z" fill="#93AAF3"/>
</svg>
