<svg width="57" height="57" viewBox="0 0 57 57" fill="none" xmlns="http://www.w3.org/2000/svg">
<circle opacity="0.2" cx="28.5" cy="28.5" r="28.5" fill="#46D880"/>
<path d="M28.44 41.88C35.8627 41.88 41.88 35.8627 41.88 28.44C41.88 21.0173 35.8627 15 28.44 15C21.0173 15 15 21.0173 15 28.44C15 35.8627 21.0173 41.88 28.44 41.88Z" stroke="#46D880" stroke-width="3" stroke-linecap="round" stroke-linejoin="round"/>
<path d="M28.44 15C27.6478 15 26.8882 15.3147 26.3281 15.8748C25.768 16.4349 25.4533 17.1946 25.4533 17.9867C25.4533 18.7788 25.768 19.5385 26.3281 20.0986C26.8882 20.6587 27.6478 20.9733 28.44 20.9733M23.96 25.4533H23.9749H23.96ZM32.92 25.4533H32.9349H32.92ZM24.7066 32.92C25.1933 33.4167 25.7741 33.8113 26.4152 34.0806C27.0562 34.35 27.7446 34.4888 28.44 34.4888C29.1353 34.4888 29.8237 34.35 30.4647 34.0806C31.1058 33.8113 31.6866 33.4167 32.1733 32.92H24.7066Z" stroke="#46D880" stroke-width="3" stroke-linecap="round" stroke-linejoin="round"/>
</svg>
